<svg xmlns="http://www.w3.org/2000/svg" viewBox="0 0 120 120">
    <g id='facebook'>
        <path fill-rule="evenodd" clip-rule="evenodd" d="M36.6157 20.5444H33.9529V30.2995V30.2995H29.9187V20.5444H27.9999V17.1161H29.9187V14.8976C29.9187 13.3112 30.6723 10.8269 33.9888 10.8269L36.9772 10.8394V14.1672H34.8089C34.4533 14.1672 33.9532 14.3449 33.9532 15.1017V17.1193H36.9681L36.6157 20.5444Z" fill="white"/>
    </g>
    <g id='google'>
        <path fill-rule="evenodd" clip-rule="evenodd" d="M28.0445 22.0284L27.4093 24.3999L25.0874 24.449C24.3935 23.162 23.9999 21.6895 23.9999 20.1247C23.9999 18.6116 24.3679 17.1847 25.0202 15.9282H25.0207L27.0878 16.3072L27.9933 18.3619C27.8038 18.9144 27.7005 19.5075 27.7005 20.1247C27.7006 20.7946 27.8219 21.4363 28.0445 22.0284Z" fill="white"/>
        <path fill-rule="evenodd" clip-rule="evenodd" d="M42.0906 18.4199C42.1954 18.9719 42.25 19.542 42.25 20.1246C42.25 20.7779 42.1813 21.4151 42.0505 22.0298C41.6063 24.1215 40.4456 25.948 38.8377 27.2406L38.8372 27.2401L36.2336 27.1072L35.8651 24.8069C36.932 24.1812 37.7658 23.202 38.205 22.0298H33.3256V18.4199H38.2762H42.0906Z" fill="white"/>
        <path fill-rule="evenodd" clip-rule="evenodd" d="M38.837 27.2403L38.8375 27.2408C37.2737 28.4978 35.2873 29.2498 33.1249 29.2498C29.6498 29.2498 26.6286 27.3075 25.0873 24.4492L28.0444 22.0286C28.815 24.0852 30.799 25.5492 33.1249 25.5492C34.1246 25.5492 35.0612 25.279 35.8649 24.8072L38.837 27.2403Z" fill="white"/>
        <path fill-rule="evenodd" clip-rule="evenodd" d="M38.9494 13.1005L35.9933 15.5206C35.1615 15.0007 34.1783 14.7004 33.1249 14.7004C30.7464 14.7004 28.7253 16.2316 27.9933 18.3619L25.0207 15.9283H25.0202C26.5389 13.0002 29.5982 10.9998 33.1249 10.9998C35.339 10.9998 37.369 11.7884 38.9494 13.1005Z" fill="white"/>
    </g>
    <g id='twitter'>
        <path fill-rule="evenodd" clip-rule="evenodd" d="M42.7396 15.2036C42.2847 15.9066 41.7093 16.4974 41.0434 16.9998C40.9115 17.0994 40.8692 17.1981 40.8736 17.3659C40.9196 19.1526 40.5308 20.8485 39.7595 22.4554C38.8373 24.3768 37.4948 25.9325 35.6758 27.0597C34.3853 27.8595 32.9795 28.3353 31.476 28.5365C30.4164 28.6784 29.3573 28.6813 28.3012 28.5295C26.7705 28.3095 25.3459 27.79 24.0374 26.9606C24.0283 26.9548 24.0225 26.9437 23.9999 26.9173C26.0816 27.1075 27.9521 26.5974 29.645 25.3252C27.8814 25.1692 26.7056 24.2802 26.0434 22.6317C26.6341 22.6964 27.1842 22.7149 27.7528 22.5536C25.5217 22 24.6279 20.024 24.7233 18.7481C24.9909 18.85 25.253 18.9721 25.5278 19.0481C25.8022 19.124 26.0894 19.1539 26.3835 19.1807C25.5847 18.5676 25.0465 17.7958 24.8288 16.8167C24.6122 15.8421 24.7672 14.9222 25.2562 14.0339C27.3484 16.4963 29.9849 17.8526 33.2114 18.0727C33.1898 17.8221 33.1597 17.5881 33.151 17.3533C33.0809 15.4453 34.3381 13.7942 36.1997 13.4078C37.5122 13.1353 38.6798 13.4765 39.6652 14.3938C39.7813 14.5018 39.877 14.5361 40.034 14.4979C40.7467 14.3245 41.4293 14.0769 42.071 13.7198C42.1235 13.6906 42.1781 13.665 42.2695 13.6185C41.9726 14.5207 41.4296 15.1812 40.6888 15.7264C40.9148 15.6847 41.1425 15.6504 41.3663 15.5991C41.5928 15.5472 41.8178 15.4852 42.0395 15.4153C42.2671 15.3435 42.49 15.2569 42.715 15.1768C42.7225 15.1863 42.7307 15.1953 42.7396 15.2036Z" fill="white"/>
        <path fill-rule="evenodd" clip-rule="evenodd" d="M30.8863 13.0098C30.9039 13.0064 30.9215 13.0031 30.9391 12.9998C30.9316 13.0173 30.9241 13.0349 30.9165 13.0525C30.9057 13.0392 30.8955 13.025 30.8863 13.0098Z" fill="#04A9F3"/>
    </g>
    <g id="couriers">
        <path fill-rule="evenodd" clip-rule="evenodd" d="M5.57842 0.199951C12.9885 0.199951 20.3984 0.199951 27.8082 0.199951C27.809 0.220605 27.809 0.241258 27.8077 0.261912C27.807 1.98649 27.8052 3.71107 27.8062 5.43565C27.8067 6.20047 28.3486 6.66905 29.2475 6.67056C31.2455 6.67357 33.2433 6.6697 35.2413 6.66841C35.2429 14.7108 35.2333 22.7533 35.2608 30.7957C35.2638 31.7043 34.5075 32.4665 33.3252 32.4284C32.6592 32.4069 31.992 32.4243 31.3251 32.4241C23.005 32.4237 14.6855 32.423 6.36562 32.4233C5.21844 32.4235 4.50779 31.8447 4.50754 30.8676C4.50451 21.7877 4.50729 12.7081 4.5083 3.62824C4.51082 2.96904 4.51537 2.30985 4.51537 1.65065C4.51537 1.26103 4.67024 0.927993 5.00118 0.65799C5.19089 0.502871 5.38592 0.352487 5.57842 0.199951ZM32.1411 25.6631C32.1643 25.6437 32.1878 25.6241 32.211 25.6048C32.211 25.0088 32.211 24.4133 32.211 23.8204C23.9579 23.8204 15.774 23.8204 7.54993 23.8204C7.54993 24.4299 7.54993 25.0172 7.54993 25.6045C7.57317 25.6241 7.59666 25.6435 7.6199 25.6628C7.81013 25.6656 8.00061 25.6708 8.19084 25.6708C15.9839 25.6712 23.7768 25.6712 31.5696 25.6708C31.7606 25.671 31.9506 25.6656 32.1411 25.6631ZM7.64545 13.1868C7.79349 13.1954 7.90009 13.2072 8.00645 13.2072C11.5043 13.2083 15.0022 13.2036 18.4999 13.215C18.8455 13.216 18.899 13.1067 18.8985 12.8509C18.8907 9.64059 18.8872 6.42981 18.9026 3.21925C18.9044 2.88943 18.7616 2.84684 18.4289 2.84748C14.9856 2.8563 11.542 2.85264 8.09866 2.85372C7.95391 2.85372 7.80915 2.86491 7.64545 2.87158C7.64545 6.3203 7.64545 9.73503 7.64545 13.1868ZM19.8391 21.4977C23.244 21.4977 26.6489 21.4977 30.0541 21.4977C30.667 21.4977 31.2801 21.4906 31.8925 21.5009C32.1386 21.5052 32.2338 21.4353 32.2252 21.221C32.2103 20.8387 32.2214 20.4556 32.2212 20.0728C32.2207 19.6208 32.2207 19.6204 31.6899 19.6204C23.8177 19.6204 15.9453 19.6204 8.07289 19.6204C8.00468 19.6204 7.93596 19.6255 7.86877 19.6195C7.62271 19.5969 7.52822 19.6836 7.53605 19.8975C7.55045 20.2912 7.56561 20.6877 7.53226 21.0799C7.50372 21.4168 7.63761 21.5061 8.03045 21.505C11.9667 21.493 15.9029 21.4977 19.8391 21.4977ZM19.833 17.3233C22.5829 17.3233 25.3325 17.3233 28.0821 17.3233C29.3208 17.3233 30.5597 17.3132 31.798 17.3298C32.1459 17.3343 32.2495 17.2364 32.2273 16.9529C32.2017 16.6297 32.2217 16.304 32.2215 15.9793C32.2212 15.511 32.2209 15.5105 31.6692 15.5105C23.8147 15.5105 15.9605 15.5105 8.10627 15.5105C8.02467 15.5105 7.94206 15.5172 7.86147 15.5095C7.60632 15.4858 7.52927 15.5878 7.53659 15.7937C7.54973 16.1644 7.5659 16.5372 7.53255 16.906C7.50198 17.2433 7.63941 17.3317 8.03124 17.3306C11.9652 17.3186 15.8991 17.3233 19.833 17.3233ZM7.56556 29.8414C7.74897 29.8414 7.90787 29.8414 8.06677 29.8414C10.0411 29.8414 12.0151 29.8414 13.9897 29.8414C15.5009 29.8414 17.0124 29.8366 18.5236 29.8459C18.8022 29.8476 18.9134 29.7841 18.9 29.5341C18.8785 29.1407 18.8707 28.7446 18.9018 28.3522C18.9263 28.0443 18.8113 27.9619 18.4486 27.963C14.963 27.9748 11.4775 27.9698 7.99174 27.9709C7.84876 27.9709 7.70577 27.984 7.56531 27.9907C7.56556 28.6219 7.56556 29.2086 7.56556 29.8414ZM21.7785 13.173C25.2767 13.173 28.7356 13.173 32.1843 13.173C32.1843 12.5459 32.1843 11.9502 32.1843 11.3594C28.6985 11.3594 25.2481 11.3594 21.7785 11.3594C21.7785 11.9702 21.7785 12.5577 21.7785 13.173Z" fill="white"/>
        <path fill-rule="evenodd" clip-rule="evenodd" d="M31.3251 32.4242C31.3274 33.0621 31.3469 33.7002 31.3274 34.3375C31.3014 35.1916 30.499 35.8346 29.489 35.8349C20.432 35.8353 11.3753 35.8351 2.31854 35.8344C1.29085 35.8342 0.543067 35.175 0.58071 34.3084C0.584248 34.2273 0.58071 34.146 0.58071 34.0647C0.58071 24.496 0.582984 14.9276 0.574646 5.35872C0.574141 4.81484 0.675445 4.34734 1.18702 3.96245C1.57025 3.67437 2.0265 3.64963 2.46759 3.62403C3.14464 3.58466 3.82775 3.62296 4.50833 3.62812C4.50732 12.708 4.50454 21.7876 4.50757 30.8675C4.50782 31.8446 5.21847 32.4234 6.36565 32.4231C14.6855 32.4234 23.0051 32.4238 31.3251 32.4242Z" fill="#4CDAC3"/>
        <path fill-rule="evenodd" clip-rule="evenodd" d="M7.64545 13.1867C7.64545 9.73498 7.64545 6.32003 7.64545 2.87152C7.8089 2.86464 7.9539 2.85366 8.09866 2.85366C11.542 2.8528 14.9856 2.85625 18.4289 2.84742C18.7616 2.84656 18.9044 2.88938 18.9026 3.21919C18.8872 6.42975 18.8907 9.64053 18.8985 12.8509C18.899 13.1067 18.8455 13.216 18.4999 13.2149C15.0022 13.2035 11.5046 13.2082 8.00645 13.2072C7.9001 13.2072 7.79374 13.1953 7.64545 13.1867Z" fill="#83DAFE"/>
        <path fill-rule="evenodd" clip-rule="evenodd" d="M19.8391 21.4976C15.9029 21.4976 11.9667 21.4929 8.03045 21.505C7.63761 21.5062 7.50372 21.417 7.53227 21.0798C7.56561 20.6876 7.55046 20.2911 7.53605 19.8974C7.52822 19.6836 7.62271 19.5969 7.86877 19.6194C7.93597 19.6255 8.00493 19.6203 8.07289 19.6203C15.9453 19.6203 23.8177 19.6203 31.6899 19.6203C32.2207 19.6203 32.2207 19.6207 32.2212 20.0728C32.2214 20.4555 32.2103 20.8387 32.2252 21.221C32.2335 21.4352 32.1383 21.505 31.8925 21.5009C31.2799 21.4905 30.6667 21.4976 30.0541 21.4976C26.6489 21.4976 23.244 21.4976 19.8391 21.4976Z" fill="#CCD5DF"/>
        <path fill-rule="evenodd" clip-rule="evenodd" d="M7.55023 25.6045C7.55023 25.0171 7.55023 24.4298 7.55023 23.8203C15.7741 23.8203 23.9582 23.8203 32.2113 23.8203C32.2113 24.4132 32.2113 25.0088 32.2116 25.6047C32.1881 25.6241 32.1646 25.6434 32.1414 25.663C31.9509 25.6658 31.7607 25.671 31.5702 25.671C23.7773 25.6714 15.9845 25.6714 8.19141 25.671C8.00118 25.671 7.81069 25.6658 7.62047 25.663C7.59697 25.6436 7.57347 25.6241 7.55023 25.6045Z" fill="#ABB2B9"/>
        <path fill-rule="evenodd" clip-rule="evenodd" d="M19.833 17.3234C15.8994 17.3234 11.9652 17.3189 8.03124 17.3307C7.63966 17.3318 7.50224 17.2436 7.53255 16.906C7.56564 16.5372 7.54973 16.1644 7.53659 15.7937C7.52927 15.5878 7.60632 15.4856 7.86147 15.5095C7.94206 15.5173 8.02467 15.5106 8.10627 15.5106C15.9608 15.5106 23.815 15.5106 31.6692 15.5106C32.221 15.5106 32.2212 15.511 32.2215 15.9794C32.2217 16.3043 32.202 16.6298 32.2273 16.9529C32.2495 17.2365 32.1459 17.3344 31.7981 17.3298C30.5597 17.3133 29.3208 17.3234 28.0821 17.3234C25.3323 17.3234 22.5827 17.3234 19.833 17.3234Z" fill="#CCD5DF"/>
        <path fill-rule="evenodd" clip-rule="evenodd" d="M27.8078 0.261963C28.3211 0.690526 28.8385 1.11565 29.3473 1.5483C30.6241 2.63412 31.9029 3.71822 33.1688 4.81329C33.8721 5.4215 34.5515 6.0495 35.2414 6.66867C33.2436 6.66975 31.2458 6.67362 29.2475 6.67083C28.3487 6.66932 27.8068 6.20074 27.8063 5.43591C27.8053 3.71112 27.807 1.98654 27.8078 0.261963Z" fill="#CDD5DF"/>
        <path fill-rule="evenodd" clip-rule="evenodd" d="M7.56561 29.8413C7.56561 29.2088 7.56561 28.6219 7.56561 27.9904C7.70607 27.9837 7.84906 27.9706 7.99205 27.9706C11.4778 27.9695 14.9633 27.9745 18.4489 27.9627C18.8116 27.9614 18.9266 28.044 18.9021 28.3519C18.871 28.7443 18.8788 29.1403 18.9003 29.5338C18.9137 29.7838 18.8023 29.8473 18.5239 29.8456C17.0127 29.8363 15.5012 29.8411 13.99 29.8411C12.0157 29.8411 10.0414 29.8411 8.06708 29.8411C7.90793 29.8413 7.74902 29.8413 7.56561 29.8413Z" fill="#ABB2B9"/>
        <path fill-rule="evenodd" clip-rule="evenodd" d="M21.7785 13.173C21.7785 12.5577 21.7785 11.9702 21.7785 11.3594C25.2481 11.3594 28.6988 11.3594 32.1843 11.3594C32.1843 11.9502 32.1843 12.5459 32.1843 13.173C28.7356 13.173 25.2767 13.173 21.7785 13.173Z" fill="#FED05C"/>
        <path fill-rule="evenodd" clip-rule="evenodd" d="M7.55023 25.6045C7.63383 25.6767 7.71835 25.749 7.80286 25.8196C7.71835 25.7482 7.63383 25.6767 7.55023 25.6045Z" fill="#B4BAC0"/>
        <path fill-rule="evenodd" clip-rule="evenodd" d="M32.1412 25.8199C32.2257 25.7476 32.3102 25.6762 32.3938 25.6047C32.3093 25.6762 32.2248 25.7484 32.1412 25.8199Z" fill="#B4BAC0"/>
    </g>
    <g id="parcel">
        <path fill-rule="evenodd" clip-rule="evenodd" d="M36.8128 7.96497C36.8208 8.14249 36.8354 8.32001 36.8354 8.49752C36.8367 15.2613 36.8366 22.0251 36.8363 28.7889C36.8363 29.7782 36.4657 30.1002 35.3265 30.1002C24.1542 30.1004 12.9816 30.0918 1.80911 30.1152C0.817042 30.1173 0.329445 29.7102 0.333398 28.8373C0.365023 22.0576 0.350578 15.2775 0.351947 8.49752C0.351947 8.32001 0.366695 8.14249 0.37445 7.96497C0.442564 7.9638 0.510831 7.96251 0.578946 7.96134C5.20617 7.96031 9.83355 7.9594 14.4606 7.9585C14.4606 9.77511 14.4606 11.5918 14.4606 13.5148C15.1511 13.0407 15.7326 12.6413 16.3557 12.2135C16.7213 12.6419 17.0674 13.0479 17.4487 13.4947C17.8325 13.0811 18.1893 12.6964 18.5922 12.2619C18.9877 12.684 19.3323 13.0521 19.728 13.4744C20.1268 13.0236 20.4728 12.6326 20.8426 12.2148C21.4558 12.6373 22.0369 13.0375 22.7265 13.5126C22.7265 11.5913 22.7265 9.77498 22.7265 7.95863C27.3537 7.95953 31.981 7.96031 36.6084 7.96134C36.6765 7.96251 36.7446 7.96381 36.8128 7.96497ZM4.7765 26.3882C5.00274 26.3987 5.13304 26.4105 5.26349 26.4098C6.54763 26.4045 6.40152 26.523 6.40562 25.4697C6.40942 24.4406 6.40638 23.4115 6.40638 22.3175C6.88729 22.3175 7.30632 22.3175 7.82797 22.3175C7.05408 21.2903 6.34693 20.352 5.58034 19.3348C4.81907 20.3564 4.11223 21.3048 3.33606 22.3465C3.90454 22.3465 4.31399 22.3465 4.77665 22.3465C4.7765 23.7084 4.7765 25.026 4.7765 26.3882ZM12.8737 22.3381C12.0814 21.2836 11.3755 20.3444 10.6139 19.3311C9.85889 20.3419 9.16117 21.2759 8.39868 22.2968C8.93219 22.3211 9.33602 22.3397 9.81297 22.3617C9.81297 23.7137 9.81297 25.0442 9.81297 26.3886C10.036 26.3981 10.1849 26.4101 10.3337 26.4099C11.5566 26.4087 11.4281 26.5036 11.4304 25.4741C11.4327 24.444 11.4308 23.414 11.4308 22.338C11.9032 22.3381 12.3116 22.3381 12.8737 22.3381ZM3.90662 27.8056C6.73763 27.8056 9.51193 27.8056 12.2841 27.8056C12.2841 27.5155 12.2841 27.2644 12.2841 27.0082C9.47255 27.0082 6.69962 27.0082 3.90662 27.0082C3.90662 27.2875 3.90662 27.5261 3.90662 27.8056Z" fill="#E9B44E"/>
        <path fill-rule="evenodd" clip-rule="evenodd" d="M36.8128 7.96482C36.7447 7.96365 36.6766 7.96236 36.6083 7.96119C36.4497 7.92895 36.291 7.86874 36.1323 7.86862C31.6595 7.86499 27.1868 7.86745 22.714 7.869C22.6717 7.71453 22.6161 7.56175 22.589 7.40546C22.3725 6.16297 22.1519 4.92099 21.9523 3.67669C21.8082 2.77783 21.694 1.87535 21.5664 0.974558C25.3646 0.973263 29.1632 0.971191 32.9615 0.971191C33.8547 0.971191 34.1113 1.14521 34.3978 1.86033C35.1942 3.84877 36.0026 5.83383 36.8038 7.82084C36.8215 7.86447 36.8104 7.91665 36.8128 7.96482Z" fill="#F5C763"/>
        <path fill-rule="evenodd" clip-rule="evenodd" d="M0.57913 7.96134C0.511015 7.9625 0.442748 7.9638 0.374634 7.96496C0.842009 6.7349 1.30528 5.50367 1.77828 4.27516C2.0889 3.4685 2.41092 2.66507 2.7331 1.86177C3.0089 1.17397 3.344 0.970947 4.19133 0.970947C8.00134 0.971724 11.8113 0.973408 15.6212 0.974702C15.5867 1.146 15.5462 1.31679 15.5186 1.489C15.3588 2.48211 15.2058 3.47588 15.0431 4.46873C14.8573 5.60272 14.6636 6.7358 14.4734 7.86915C10.0007 7.86772 5.52793 7.86526 1.05517 7.86889C0.896441 7.86902 0.737709 7.9291 0.57913 7.96134Z" fill="#F5C763"/>
        <path fill-rule="evenodd" clip-rule="evenodd" d="M14.4734 7.86918C14.6636 6.73571 14.8571 5.60263 15.0431 4.46864C15.2058 3.47591 15.3587 2.48202 15.5185 1.48891C15.5463 1.3167 15.5866 1.14591 15.6211 0.974609C17.6029 0.974609 19.5846 0.974609 21.5664 0.974609C21.694 1.87553 21.8082 2.77788 21.9523 3.67687C22.1519 4.92117 22.3727 6.16328 22.5891 7.40564C22.6163 7.56206 22.6718 7.71471 22.714 7.86918L22.6833 7.8574C19.9569 7.8574 17.2305 7.8574 14.5041 7.8574L14.4734 7.86918Z" fill="#EDEEED"/>
        <path fill-rule="evenodd" clip-rule="evenodd" d="M22.7266 7.95875C22.7266 9.7751 22.7266 11.5915 22.7266 13.5127C22.0371 13.0375 21.456 12.6373 20.8426 12.2149C20.4729 12.6327 20.1268 13.0238 19.728 13.4745C19.3324 13.0522 18.9877 12.6841 18.5923 12.262C18.1894 12.6967 17.8324 13.0813 17.4488 13.4948C17.0674 13.048 16.7214 12.6421 16.3557 12.2136C15.7327 12.6414 15.1511 13.0409 14.4607 13.5149C14.4607 11.592 14.4607 9.77523 14.4608 7.95862C14.4608 7.95862 14.503 7.96716 14.5028 7.96716C17.23 7.96716 19.9573 7.96716 22.6846 7.96716L22.7266 7.95875Z" fill="#DAD7DC"/>
        <path fill-rule="evenodd" clip-rule="evenodd" d="M4.77653 26.3882C4.77653 25.0259 4.77653 23.7083 4.77653 22.3464C4.31387 22.3464 3.90442 22.3464 3.33594 22.3464C4.11211 21.3048 4.81895 20.3563 5.58022 19.3347C6.34681 20.3519 7.05396 21.2904 7.82785 22.3174C7.3062 22.3174 6.88717 22.3174 6.40626 22.3174C6.40626 23.4114 6.40946 24.4404 6.4055 25.4696C6.4014 26.523 6.54751 26.4045 5.26337 26.4098C5.13307 26.4104 5.00262 26.3986 4.77653 26.3882Z" fill="#585B6C"/>
        <path fill-rule="evenodd" clip-rule="evenodd" d="M12.8737 22.3381C12.3115 22.3381 11.9031 22.3381 11.4308 22.3381C11.4308 23.4141 11.4327 24.4441 11.4304 25.4742C11.4281 26.5036 11.5567 26.4088 10.3337 26.41C10.1849 26.4103 10.036 26.3982 9.81297 26.3888C9.81297 25.0444 9.81297 23.714 9.81297 22.3618C9.33586 22.3398 8.93219 22.3213 8.39868 22.2969C9.16117 21.2758 9.85889 20.3419 10.6139 19.3312C11.3755 20.3444 12.0814 21.2836 12.8737 22.3381Z" fill="#585B6C"/>
        <path fill-rule="evenodd" clip-rule="evenodd" d="M3.90662 27.8056C3.90662 27.5261 3.90662 27.2875 3.90662 27.0082C6.69962 27.0082 9.47255 27.0082 12.2841 27.0082C12.2841 27.2644 12.2841 27.5155 12.2841 27.8056C9.51193 27.8056 6.73763 27.8056 3.90662 27.8056Z" fill="#575B6D"/>
        <path fill-rule="evenodd" clip-rule="evenodd" d="M0.579102 7.98029C0.737681 7.94218 0.896412 7.87101 1.05514 7.87086C5.5279 7.86673 10.0007 7.86963 14.4734 7.87132L14.5041 7.85754C14.5037 7.90086 14.5034 7.94386 14.5031 7.98702C14.5031 7.98702 14.4611 7.97692 14.4609 7.97692C9.83356 7.97799 5.20633 7.97922 0.579102 7.98029Z" fill="#F2CC7D"/>
        <path fill-rule="evenodd" clip-rule="evenodd" d="M22.7139 7.87147C27.1867 7.86963 31.6595 7.86673 36.1322 7.87101C36.2909 7.87117 36.4497 7.94233 36.6082 7.98044C31.9809 7.97937 27.3536 7.9783 22.7264 7.97723L22.6846 7.98702C22.6841 7.94386 22.6837 7.9007 22.6832 7.85754L22.7139 7.87147Z" fill="#F2CC7D"/>
        <path fill-rule="evenodd" clip-rule="evenodd" d="M22.6832 7.85754C22.6837 7.9007 22.6842 7.94386 22.6846 7.98702C19.9573 7.98702 17.23 7.98702 14.5028 7.98702C14.5033 7.94386 14.5036 7.90086 14.504 7.85754C17.2304 7.85754 19.9568 7.85754 22.6832 7.85754Z" fill="#E2D8C8"/>
    </g>
    <g id="track">
        <path fill-rule="evenodd" clip-rule="evenodd" d="M53.6384 23.418C53.8433 23.7089 54.048 23.9998 54.2528 24.2906C54.2528 26.1206 54.2528 27.9505 54.2528 29.7804C53.0349 29.7804 51.8171 29.7804 50.603 29.7804C50.603 30.4735 50.603 31.0451 50.603 31.6806C51.8413 31.6806 53.0469 31.6806 54.2528 31.6806C54.2528 32.5957 54.2528 33.5105 54.2528 34.4256C52.4273 34.4224 50.6019 34.4191 48.7765 34.416C48.7445 34.1898 48.7183 33.9626 48.6793 33.7376C48.3527 31.8446 47.2719 30.5706 45.438 30.0399C43.6718 29.5288 42.1081 29.9881 40.8197 31.3172C40.0093 32.1531 39.6957 33.1987 39.5715 34.3214C39.5404 34.3466 39.5088 34.3718 39.4777 34.397C38.9136 34.3986 38.3491 34.4001 37.7847 34.4017C37.7845 26.7773 37.7842 19.1528 37.7839 11.5284C40.4212 11.5227 43.0583 11.5129 45.6955 11.522C45.8539 11.5227 46.0756 11.6329 46.1603 11.7623C46.9002 12.8936 47.6159 14.0406 48.3389 15.1831C45.4324 15.1832 42.5254 15.1832 39.6037 15.1832C39.6037 17.5815 39.6037 19.8812 39.6037 22.1808C39.6037 22.5927 39.6037 23.0045 39.6037 23.4418C39.8601 23.4418 40.0523 23.4418 40.2443 23.4418C43.6725 23.4418 47.1005 23.4438 50.5285 23.4407C51.5652 23.4399 52.6019 23.4258 53.6384 23.418Z" fill="#FCB52F"/>
        <path fill-rule="evenodd" clip-rule="evenodd" d="M54.2529 31.6806C53.0469 31.6806 51.8414 31.6806 50.603 31.6806C50.603 31.0452 50.603 30.4735 50.603 29.7805C51.8171 29.7805 53.0349 29.7805 54.2529 29.7805C54.2529 30.4138 54.2529 31.0473 54.2529 31.6806Z" fill="#DCD9D3"/>
        <path fill-rule="evenodd" clip-rule="evenodd" d="M0.199951 0.536985C0.671949 0.536325 1.14949 0.489086 1.61462 0.54543C2.39341 0.639645 1.89397 1.25732 1.97407 1.62257C2.02645 1.86167 2.22016 2.34396 1.61594 2.3338C1.14408 2.32588 0.671949 2.33195 0.200083 2.33168C0.199951 1.73341 0.199951 1.13513 0.199951 0.536985Z" fill="#DADADA"/>
        <path fill-rule="evenodd" clip-rule="evenodd" d="M1.15017 29.7894C1.14357 29.6139 1.13117 29.4385 1.13117 29.2631C1.13025 21.419 1.13038 13.5749 1.13038 5.73093C1.13038 5.54 1.13038 5.34906 1.13038 5.1217C12.7323 5.1217 24.2928 5.1217 35.9025 5.1217C35.9025 6.03548 35.9025 6.92722 35.9025 7.8187C25.6285 7.82028 15.3546 7.82174 5.08054 7.82332C3.89019 7.82345 3.89019 7.82332 3.89072 9.00338C3.89111 9.71527 3.89111 9.71553 4.59983 9.71553C15.0322 9.71632 25.4645 9.71712 35.8968 9.71778C35.9022 10.3019 35.9079 10.8861 35.9136 11.4703C35.9044 11.6457 35.8871 11.821 35.8871 11.9962C35.8863 17.9219 35.8868 23.8475 35.8873 29.7734L35.8727 29.7932C30.4096 29.7932 24.9463 29.7932 19.4528 29.7932C19.4528 30.4423 19.4528 31.0281 19.4528 31.6705C24.9516 31.6705 30.4154 31.6705 35.879 31.6705C35.8803 32.5787 35.8814 33.487 35.8826 34.3949C35.6725 34.4023 35.4625 34.4159 35.2522 34.416C29.6185 34.4172 23.9843 34.4172 18.3503 34.416C18.1401 34.416 17.9299 34.4034 17.7198 34.3966C17.6894 34.3716 17.6589 34.3462 17.6283 34.3212C17.5963 34.1312 17.5622 33.9414 17.5326 33.751C17.2688 32.051 16.3331 30.8409 14.7611 30.1962C13.1702 29.5438 11.6332 29.7552 10.2448 30.7939C9.07148 31.6715 8.55528 32.9019 8.42517 34.3243C8.39258 34.3509 8.35999 34.3775 8.32753 34.4043C5.95896 34.4043 3.5904 34.4043 1.14569 34.4043C1.14569 33.4842 1.14569 32.5811 1.14569 31.678C2.54994 31.6781 3.95406 31.6785 5.35831 31.6787C6.64921 31.6788 6.63166 31.6785 6.64657 30.3834C6.65198 29.9258 6.5133 29.7704 6.04724 29.7774C4.4151 29.8018 2.78257 29.7883 1.15017 29.7894Z" fill="#FCB52F"/>
        <path fill-rule="evenodd" clip-rule="evenodd" d="M8.42493 34.3243C8.55504 32.9019 9.07124 31.6715 10.2446 30.7939C11.633 29.7552 13.17 29.5437 14.7608 30.1962C16.333 30.841 17.2687 32.0512 17.5324 33.751C17.5619 33.9414 17.596 34.1312 17.628 34.3212C17.6122 34.3536 17.6125 34.3858 17.629 34.4182C17.5102 35.883 16.9957 37.1503 15.7749 38.0475C14.3708 39.0793 12.8243 39.2816 11.2386 38.605C9.69815 37.9479 8.76551 36.7433 8.51704 35.0547C8.48629 34.8461 8.45449 34.6376 8.42322 34.4291C8.42361 34.3941 8.42427 34.3593 8.42493 34.3243ZM13.8895 35.3166C13.8895 34.6778 13.8895 34.0914 13.8895 33.5098C13.2871 33.5098 12.7303 33.5098 12.1526 33.5098C12.1526 34.1227 12.1526 34.7076 12.1526 35.3166C12.7447 35.3166 13.301 35.3166 13.8895 35.3166Z" fill="#146198"/>
        <path fill-rule="evenodd" clip-rule="evenodd" d="M39.5714 34.3214C39.6956 33.1987 40.0092 32.1531 40.8196 31.3172C42.1079 29.9883 43.6717 29.5288 45.4379 30.0399C47.2718 30.5706 48.3528 31.8448 48.6792 33.7376C48.7182 33.9626 48.7444 34.1898 48.7764 34.416C48.6704 35.9034 48.1279 37.1754 46.8939 38.0722C45.5084 39.079 43.975 39.2764 42.4121 38.616C40.856 37.9586 39.9109 36.7487 39.6658 35.0417C39.6358 34.8336 39.6022 34.6262 39.5698 34.4184C39.5868 34.3863 39.5871 34.354 39.5714 34.3214ZM45.0574 33.5223C44.4245 33.5223 43.8577 33.5223 43.2882 33.5223C43.2882 34.134 43.2882 34.7056 43.2882 35.2976C43.8915 35.2976 44.4706 35.2976 45.0574 35.2976C45.0574 34.6839 45.0574 34.1136 45.0574 33.5223Z" fill="#146098"/>
        <path fill-rule="evenodd" clip-rule="evenodd" d="M35.8966 9.71792C25.4643 9.71726 15.032 9.71647 4.59964 9.71568C3.89092 9.71568 3.89092 9.71542 3.89052 9.00353C3.89 7.82347 3.89 7.82373 5.08035 7.82347C15.3542 7.82188 25.6282 7.82043 35.9023 7.81885C35.9188 7.88892 35.9356 7.95911 35.9521 8.02905C35.9521 8.5244 35.9521 9.01976 35.9521 9.51511C35.9336 9.58267 35.915 9.65023 35.8966 9.71792Z" fill="#D18F13"/>
        <path fill-rule="evenodd" clip-rule="evenodd" d="M53.6382 23.418C52.6017 23.426 51.5648 23.44 50.5283 23.4409C47.1003 23.4438 43.6724 23.4419 40.2442 23.4419C40.0522 23.4419 39.8599 23.4419 39.6035 23.4419C39.6035 23.0048 39.6035 22.5928 39.6035 22.181C40.1359 21.963 40.6837 21.7762 41.198 21.5215C43.8562 20.2052 46.1793 18.4392 48.1908 16.2601C48.3611 16.0755 48.5578 15.9153 48.7424 15.7439C50.3488 18.2373 51.9554 20.7304 53.5602 23.2249C53.5971 23.282 53.6128 23.3531 53.6382 23.418Z" fill="#6CBAC6"/>
        <path fill-rule="evenodd" clip-rule="evenodd" d="M35.8825 34.3951C35.8811 33.487 35.8801 32.5787 35.8792 31.6708C35.8768 31.0449 35.8748 30.4192 35.8724 29.7933C35.8724 29.7933 35.8871 29.7735 35.8871 29.7737C35.9203 29.5731 35.9825 29.3728 35.9827 29.1722C35.9879 23.2845 35.9871 17.3966 35.9871 11.5088C36.586 11.5153 37.185 11.5217 37.7839 11.5282C37.7842 19.1527 37.7844 26.7771 37.7847 34.4015C37.1507 34.3994 36.5165 34.3973 35.8825 34.3951Z" fill="#FEA83D"/>
        <path fill-rule="evenodd" clip-rule="evenodd" d="M48.7423 15.7438C48.5579 15.9152 48.3611 16.0754 48.1908 16.26C46.1793 18.4391 43.8561 20.2051 41.198 21.5214C40.6837 21.776 40.1359 21.9629 39.6035 22.1809C39.6035 19.881 39.6035 17.5815 39.6035 15.1832C42.5254 15.1832 45.4322 15.1832 48.3387 15.1831C48.4733 15.3698 48.6078 15.5569 48.7423 15.7438Z" fill="#87CDD8"/>
        <path fill-rule="evenodd" clip-rule="evenodd" d="M10.3195 0.534654C12.2713 0.534654 14.2234 0.544814 16.175 0.526209C16.5733 0.522383 16.6816 0.645627 16.6803 1.03621C16.6758 2.33265 16.6908 2.33265 15.3879 2.33265C11.7479 2.33265 8.10765 2.32381 4.46771 2.3436C3.99756 2.34624 3.87089 2.21535 3.88105 1.75219C3.90797 0.53505 3.8862 0.534654 5.0966 0.534654C6.8376 0.534654 8.5786 0.534654 10.3195 0.534654Z" fill="#DADADA"/>
        <path fill-rule="evenodd" clip-rule="evenodd" d="M1.15 29.7893C2.7824 29.7883 4.41493 29.8017 6.04693 29.7773C6.51299 29.7702 6.65167 29.9258 6.64627 30.3834C6.63135 31.6785 6.6489 31.6788 5.358 31.6786C3.95375 31.6785 2.54963 31.6781 1.14539 31.678C1.14697 31.0484 1.14842 30.4188 1.15 29.7893Z" fill="#F36E27"/>
        <path fill-rule="evenodd" clip-rule="evenodd" d="M36.0182 11.5089C36.0182 17.3966 36.0193 23.2845 36.0125 29.1723C36.0122 29.3729 35.9308 29.5732 35.8872 29.7737C35.8865 23.8478 35.8858 17.9222 35.8869 11.9964C35.8869 11.8212 35.9095 11.6458 35.9216 11.4705C35.9602 11.4742 35.9923 11.4871 36.0182 11.5089Z" fill="#FDBC5F"/>
        <path fill-rule="evenodd" clip-rule="evenodd" d="M8.45922 34.3243C8.45833 34.3684 8.45744 34.4123 8.45655 34.4563C8.41043 34.4566 8.36752 34.4461 8.32727 34.425C8.37126 34.3913 8.41524 34.3577 8.45922 34.3243Z" fill="#FDBC5F"/>
        <path fill-rule="evenodd" clip-rule="evenodd" d="M17.6323 34.4531C17.6112 34.4091 17.6109 34.3654 17.6311 34.3213C17.6701 34.3554 17.709 34.3898 17.7482 34.4238C17.7121 34.4448 17.6735 34.4547 17.6323 34.4531Z" fill="#FEA83D"/>
        <path fill-rule="evenodd" clip-rule="evenodd" d="M39.5952 34.3213C39.6149 34.3655 39.6145 34.4094 39.5935 34.4531C39.5525 34.4545 39.5142 34.4449 39.4777 34.4239C39.5167 34.3895 39.5562 34.3555 39.5952 34.3213Z" fill="#FEA83D"/>
        <path fill-rule="evenodd" clip-rule="evenodd" d="M35.8724 29.7933C35.8748 30.4191 35.8768 31.0448 35.8791 31.6708C30.4152 31.6706 24.9514 31.6706 19.4526 31.6706C19.4526 31.0284 19.4526 30.4424 19.4526 29.7933C24.946 29.7933 30.4091 29.7933 35.8724 29.7933Z" fill="#F36C27"/>
        <path fill-rule="evenodd" clip-rule="evenodd" d="M13.8896 35.3166C13.3012 35.3166 12.7449 35.3166 12.1527 35.3166C12.1527 34.7076 12.1527 34.1226 12.1527 33.5098C12.7304 33.5098 13.2872 33.5098 13.8896 33.5098C13.8896 34.0913 13.8896 34.6778 13.8896 35.3166Z" fill="#D3D6D8"/>
        <path fill-rule="evenodd" clip-rule="evenodd" d="M45.0576 33.5222C45.0576 34.1135 45.0576 34.6838 45.0576 35.2975C44.4708 35.2975 43.8916 35.2975 43.2883 35.2975C43.2883 34.7056 43.2883 34.134 43.2883 33.5222C43.8578 33.5222 44.4246 33.5222 45.0576 33.5222Z" fill="#D3D6D8"/>
    </g>
</svg>
